<svg width="618" height="618" viewBox="0 0 618 618" fill="none" xmlns="http://www.w3.org/2000/svg">
<mask id="mask0" mask-type="alpha" maskUnits="userSpaceOnUse" x="0" y="0" width="618" height="618">
<circle cx="309" cy="309" r="309" fill="#BFBFBF"/>
</mask>
<g mask="url(#mask0)">
<circle cx="308.452" cy="308.452" r="308.452" fill="#CBC2FF"/>
<path d="M392.771 249.382C392.769 249.378 392.769 249.374 392.767 249.37L311.571 -26.7873C310.797 -29.4096 308.048 -30.9131 305.423 -30.1484L238.749 -10.5456C237.836 -10.2505 237.03 -9.68988 236.435 -8.93582L236.178 -19.588C236.112 -22.3279 233.836 -24.4957 231.096 -24.4294L92.1767 -21.0704C89.4367 -21.0042 87.269 -18.729 87.3352 -15.9891L94.2931 271.773C94.3594 274.513 96.6346 276.681 99.3745 276.615L238.294 273.256C241.034 273.189 243.202 270.914 243.136 268.174L236.649 -0.0995311L316.585 271.775C317.22 273.929 319.221 275.39 321.467 275.335C321.896 275.322 322.321 275.255 322.733 275.136L389.392 255.533C392.023 254.768 393.536 252.013 392.771 249.382ZM163.633 265.132L104.096 266.572L97.378 -11.2676L156.915 -12.7071L163.633 265.132ZM233.093 263.453L173.556 264.892L166.838 -12.9471L226.375 -14.3866L233.093 263.453ZM324.708 264.216L246.313 -2.42318L303.448 -19.2288L381.843 247.411L324.708 264.216Z" fill="#F8F8F8"/>
<path d="M142.511 7.49842L112.742 8.2182C110.002 8.28445 107.834 10.5596 107.901 13.2996C107.967 16.0395 110.242 18.2073 112.982 18.141L142.751 17.4212C145.491 17.355 147.658 15.0798 147.592 12.3399C147.526 9.59993 145.251 7.43217 142.511 7.49842Z" fill="#F8F8F8"/>
<path d="M142.991 27.3441L113.222 28.0639C110.482 28.1302 108.314 30.4054 108.381 33.1453C108.447 35.8852 110.722 38.053 113.462 37.9868L143.23 37.267C145.97 37.2007 148.138 34.9255 148.072 32.1856C148.006 29.4456 145.73 27.2779 142.991 27.3441Z" fill="#F8F8F8"/>
<path d="M211.97 5.81891L182.202 6.5387C179.462 6.60495 177.294 8.88014 177.36 11.6201C177.427 14.36 179.702 16.5278 182.442 16.4615L212.21 15.7417C214.95 15.6755 217.118 13.4003 217.052 10.6604C216.986 7.92042 214.71 5.75266 211.97 5.81891Z" fill="#F8F8F8"/>
<path d="M212.45 25.6646L182.682 26.3844C179.942 26.4507 177.774 28.7259 177.84 31.4658C177.907 34.2057 180.182 36.3735 182.922 36.3073L212.69 35.5875C215.43 35.5212 217.598 33.246 217.532 30.5061C217.465 27.7661 215.19 25.5984 212.45 25.6646Z" fill="#F8F8F8"/>
<path d="M301.068 7.47539C300.365 4.82591 297.648 3.24782 294.999 3.9504C294.912 3.97358 294.827 3.99861 294.742 4.02611L266.152 12.422C263.519 13.1819 262 15.9329 262.76 18.5661C263.519 21.1993 266.27 22.7183 268.904 21.9583C268.918 21.9543 268.933 21.9496 268.949 21.9455L297.544 13.5445C300.193 12.8419 301.77 10.1249 301.068 7.47539Z" fill="#F8F8F8"/>
<path d="M306.543 26.4277C305.769 23.7979 303.01 22.2934 300.38 23.0669L300.36 23.0674L271.795 31.4677C269.162 32.2276 267.643 34.9785 268.403 37.6117C269.163 40.2449 271.914 41.7639 274.547 41.004C274.562 40.9999 274.577 40.9952 274.592 40.9911L303.182 32.5902C305.812 31.8167 307.316 29.0574 306.543 26.4277Z" fill="#F8F8F8"/>
<path d="M359.695 207.344C358.915 204.735 356.18 203.242 353.564 203.996L324.974 212.397C322.344 213.169 320.839 215.928 321.611 218.557C322.244 220.714 324.248 222.175 326.495 222.12L326.515 222.12C326.948 222.109 327.379 222.042 327.796 221.92L356.361 213.52C358.987 212.735 360.479 209.97 359.695 207.344Z" fill="#F8F8F8"/>
<path d="M365.338 226.389C364.558 223.781 361.823 222.287 359.207 223.042L330.612 231.443C327.983 232.215 326.477 234.973 327.249 237.603C327.883 239.76 329.886 241.221 332.133 241.166C332.567 241.156 332.998 241.087 333.414 240.961L362.004 232.565C364.63 231.781 366.122 229.016 365.338 226.389Z" fill="#F8F8F8"/>
<path d="M217.009 214.198L187.24 214.918C184.501 214.984 182.333 217.26 182.399 220C182.465 222.74 184.74 224.907 187.48 224.841L217.249 224.121C219.989 224.055 222.157 221.78 222.09 219.04C222.024 216.3 219.749 214.132 217.009 214.198Z" fill="#F8F8F8"/>
<path d="M217.489 234.044L187.72 234.764C184.98 234.83 182.813 237.105 182.879 239.845C182.945 242.585 185.22 244.753 187.96 244.687L217.729 243.967C220.469 243.901 222.636 241.625 222.57 238.886C222.504 236.146 220.229 233.978 217.489 234.044Z" fill="#F8F8F8"/>
<path d="M147.549 215.878L117.781 216.598C115.041 216.664 112.873 218.939 112.939 221.679C113.005 224.419 115.28 226.587 118.02 226.521L147.789 225.801C150.529 225.735 152.697 223.459 152.63 220.719C152.564 217.979 150.289 215.812 147.549 215.878Z" fill="#F8F8F8"/>
<path d="M148.029 235.724L118.26 236.443C115.521 236.51 113.353 238.785 113.419 241.525C113.485 244.265 115.76 246.433 118.5 246.366L148.269 245.646C151.009 245.58 153.177 243.305 153.11 240.565C153.044 237.825 150.769 235.657 148.029 235.724Z" fill="#F8F8F8"/>
<g clip-path="url(#clip0)">
<path d="M333.699 257.878C336.201 259.013 339.152 257.904 340.289 255.401C341.143 253.518 342.234 251.729 343.533 250.084C351.603 239.857 366.479 237.394 377.401 244.479C383.105 248.179 387.039 253.855 388.479 260.465C389.868 266.842 393.669 272.564 399.177 276.575C400.514 277.547 402.12 277.885 403.635 277.646C405.152 277.407 406.576 276.592 407.549 275.256L435.668 236.624C437.393 234.251 440.625 233.611 443.107 235.056C443.266 235.181 443.413 235.316 443.578 235.436L478.663 260.973C476.486 262.907 473.911 264.247 471.158 264.847C465.697 266.037 460.539 268.531 456.239 272.057C454.114 273.801 453.804 276.937 455.547 279.063C456.709 280.479 458.488 281.09 460.175 280.824C461.021 280.691 461.843 280.338 462.553 279.755C465.641 277.223 469.35 275.431 473.279 274.575C479.656 273.184 485.377 269.384 489.388 263.876C491.979 260.465 489.879 256.221 486.531 254.31L449.456 227.324C446.878 225.658 446.367 221.932 448.188 219.456L473.691 184.418C475.532 186.552 476.811 189.054 477.393 191.725C479.396 200.915 484.86 208.805 492.778 213.942C507.969 223.796 528.657 220.374 539.88 206.156C545.926 198.495 548.524 188.964 547.197 179.317C545.87 169.667 540.802 161.197 532.928 155.465C525.918 150.364 517.308 148.009 508.683 148.837C505.922 149.101 503.122 148.655 500.517 147.563L526.018 112.53C526.91 111.304 528.226 110.499 529.723 110.263C531.22 110.027 532.72 110.389 533.946 111.281L573.398 139.997C575.621 141.614 578.734 141.124 580.353 138.902L581.515 137.306C585.51 131.815 587.365 125.184 586.737 118.633C586.142 112.431 587.836 106.239 591.505 101.199C595.627 95.5335 601.716 91.8973 608.664 90.9329C615.604 89.978 622.461 91.8491 627.978 96.2015C638.203 104.271 640.665 119.148 633.581 130.07C629.882 135.773 624.205 139.707 617.595 141.147C611.217 142.538 605.496 146.338 601.486 151.846L600.326 153.44C598.708 155.663 599.199 158.776 601.421 160.394L640.873 189.111C643.403 190.953 643.963 194.509 642.122 197.04L635.822 205.696C634.204 207.919 634.694 211.032 636.917 212.65C639.139 214.267 642.253 213.777 643.871 211.554L650.171 202.898C655.244 195.929 653.701 186.133 646.732 181.061L611.5 155.416C613.817 153.123 616.656 151.542 619.715 150.875C628.905 148.871 636.796 143.406 641.933 135.488C651.787 120.296 648.365 99.6064 634.144 88.3853C626.483 82.3408 616.952 79.7426 607.307 81.0698C597.652 82.3973 589.186 87.4651 583.455 95.3393C578.354 102.348 575.999 110.958 576.826 119.584C577.129 122.747 576.5 125.961 575.035 128.875L539.805 103.231C532.836 98.1595 523.04 99.7016 517.968 106.671L489.697 145.509C488.796 146.748 488.43 148.264 488.669 149.777C488.907 151.29 489.721 152.621 490.962 153.525C496.452 157.521 503.083 159.375 509.634 158.747C515.836 158.153 522.028 159.846 527.069 163.515C532.733 167.638 536.379 173.732 537.334 180.675C538.289 187.614 536.418 194.473 532.065 199.989C523.995 210.214 509.118 212.675 498.196 205.59C492.494 201.891 488.56 196.214 487.12 189.605C485.729 183.227 481.93 177.506 476.422 173.497C473.864 171.636 470.271 172.201 468.407 174.759L440.138 213.598C437.726 216.912 436.826 220.862 437.278 224.643C433.531 225.37 430.036 227.443 427.617 230.764L402.08 265.85C400.147 263.673 398.806 261.098 398.206 258.345C396.202 249.155 390.737 241.265 382.819 236.127C367.628 226.275 346.939 229.696 335.717 243.916C333.92 246.193 332.407 248.673 331.221 251.289C330.086 253.792 331.195 256.742 333.699 257.878V257.878Z" fill="#F8F8F8"/>
<path d="M633.046 239.356C630.199 239.63 627.311 239.146 624.638 237.979L630.347 230.136C631.965 227.913 631.474 224.8 629.252 223.182C627.028 221.565 623.916 222.055 622.297 224.277L613.407 236.491C611.492 239.076 612.621 242.543 615.324 244.044C620.815 248.04 627.446 249.894 633.996 249.267C640.199 248.672 646.392 250.366 651.433 254.035C657.097 258.158 660.742 264.252 661.698 271.195C662.652 278.135 660.781 284.992 656.428 290.508C648.356 300.735 633.48 303.194 622.559 296.11C616.857 292.41 612.923 286.734 611.483 280.125C610.092 273.746 606.293 268.026 600.785 264.016C598.526 261.906 594.88 261.9 593.01 264.514L564.294 303.966C562.567 306.339 559.335 306.98 556.853 305.534C556.695 305.409 556.549 305.274 556.385 305.156L517.768 277.047C515.128 275.222 511.315 275.697 509.359 278.417C505.363 283.907 503.509 290.538 504.137 297.089C504.731 303.291 503.037 309.483 499.369 314.523C495.246 320.188 489.156 323.836 482.209 324.789C475.27 325.744 468.412 323.873 462.897 319.521C456.195 314.233 452.617 305.932 453.325 297.318C453.55 294.578 451.511 292.174 448.771 291.949C446.029 291.721 443.628 293.763 443.402 296.503C442.421 308.45 447.403 319.977 456.729 327.337C464.39 333.381 473.921 335.979 483.566 334.652C483.803 334.62 484.038 334.585 484.272 334.548C493.628 333.074 501.827 328.064 507.418 320.383C512.519 313.374 514.874 304.764 514.047 296.138C513.773 293.292 514.257 290.404 515.424 287.73L550.504 313.265C550.682 313.395 550.862 313.517 551.044 313.639C553.12 315.564 553.48 318.789 551.773 321.133L523.056 360.586C520.809 363.599 522.787 367.137 525.748 368.702C531.238 372.698 537.869 374.552 544.42 373.924C550.622 373.33 556.815 375.024 561.855 378.693C567.52 382.815 571.165 388.909 572.121 395.852C573.076 402.79 571.205 409.648 566.852 415.164C558.783 425.39 543.907 427.852 532.984 420.769C527.281 417.069 523.347 411.393 521.907 404.783C520.516 398.403 516.715 392.682 511.208 388.675C508.864 386.344 504.781 385.561 502.659 388.608L473.943 428.06C472.101 430.592 468.545 431.152 466.014 429.309L426.562 400.593C424.047 398.678 420.447 399.834 419.009 402.511C415.014 408.001 413.159 414.632 413.787 421.182C414.382 427.385 412.688 433.577 409.018 438.619C404.896 444.283 398.817 447.912 391.858 448.884C384.919 449.838 378.061 447.967 372.545 443.614C362.32 435.544 359.859 420.667 366.944 409.745C370.643 404.043 376.319 400.109 382.929 398.669C389.307 397.278 395.028 393.479 399.038 387.971C401.148 385.711 401.155 382.065 398.539 380.196L359.088 351.48C356.557 349.638 355.996 346.081 357.839 343.55L385.959 304.918C386.901 303.625 387.282 302.041 387.033 300.46C386.784 298.879 385.934 297.49 384.638 296.546C379.147 292.55 372.516 290.696 365.966 291.323C359.763 291.918 353.571 290.224 348.53 286.556C344.751 283.804 341.805 280.084 340.011 275.798C338.95 273.261 336.034 272.068 333.497 273.127C330.961 274.188 329.765 277.104 330.826 279.641C333.322 285.607 337.418 290.781 342.671 294.606C349.68 299.707 358.291 302.062 366.916 301.235C369.762 300.961 372.65 301.445 375.324 302.612L349.789 337.693C344.717 344.662 346.26 354.458 353.228 359.53L388.314 385.068C386.138 387.001 383.562 388.342 380.809 388.942C371.619 390.946 363.729 396.41 358.593 404.328C348.738 419.518 352.158 440.208 366.378 451.429C374.039 457.475 383.57 460.074 393.216 458.747C402.87 457.418 411.337 452.351 417.068 444.478C422.17 437.469 424.525 428.858 423.698 420.233C423.424 417.386 423.908 414.499 425.075 411.825L460.155 437.359C467.124 442.431 476.92 440.888 481.993 433.92L507.638 398.687C509.931 401.004 511.512 403.843 512.179 406.903C514.182 416.093 519.647 423.983 527.566 429.121C535.081 433.994 543.937 435.621 552.331 434.299C560.906 432.947 568.997 428.518 574.668 421.331C580.713 413.671 583.311 404.14 581.984 394.494C580.656 384.845 575.588 376.374 567.714 370.643C560.705 365.542 552.094 363.187 543.47 364.015C540.306 364.318 537.093 363.688 534.179 362.223L559.823 326.993C562.231 323.685 563.131 319.742 562.684 315.968C566.58 315.214 569.995 313.051 572.342 309.826L597.88 274.74C599.813 276.916 601.154 279.491 601.754 282.245C603.757 291.434 609.222 299.324 617.14 304.461C632.33 314.316 653.019 310.896 664.241 296.676C670.287 289.015 672.886 279.484 671.559 269.838C670.231 260.188 665.163 251.717 657.29 245.986C650.282 240.884 641.672 238.529 633.046 239.356V239.356Z" fill="#F8F8F8"/>
</g>
<g clip-path="url(#clip1)">
<path d="M90.9395 382.887C88.5009 372.574 78.1259 366.167 67.8133 368.606C63.2885 369.676 59.4133 372.269 56.7434 375.924C54.6518 375.722 52.5285 375.863 50.459 376.353C40.1457 378.791 33.7393 389.166 36.1779 399.479C38.0605 407.44 44.8523 413.252 52.7438 414.154C56.8144 421.579 65.5092 425.65 74.0257 423.637C84.339 421.198 90.7454 410.824 88.3068 400.51C88.1562 399.874 87.9742 399.247 87.7613 398.633C91.0279 394.146 92.2416 388.394 90.9395 382.887ZM78.4188 394.041L75.4299 396.794L77.4867 400.298C77.947 401.083 78.2885 401.934 78.4999 402.828C79.6597 407.733 76.6122 412.667 71.7076 413.827C67.0658 414.925 62.3136 412.223 60.8893 407.678L59.6791 403.818L55.6488 404.164C51.176 404.548 47.0221 401.537 45.9868 397.158C44.827 392.253 47.8745 387.319 52.7791 386.159C54.4164 385.772 56.1202 385.841 57.7071 386.359L62.0324 387.772L63.8776 383.613C65.0499 380.97 67.3296 379.075 70.1334 378.412C75.0386 377.252 79.9729 380.3 81.1326 385.205C81.8909 388.414 80.8516 391.8 78.4188 394.041Z" fill="#F8F8F8"/>
<path d="M128.413 307.781C126.169 298.288 116.62 292.392 107.127 294.637C103.064 295.598 99.5704 297.892 97.1213 301.127C95.2954 300.982 93.449 301.121 91.6456 301.547C82.1529 303.792 76.2562 313.341 78.5007 322.833C78.6392 323.419 78.8077 323.997 79.0056 324.565C77.2931 328.173 76.8365 332.286 77.7674 336.223C80.012 345.716 89.5607 351.612 99.0534 349.367C102.022 348.665 104.745 347.207 106.965 345.162C108.949 345.375 110.964 345.251 112.92 344.788C122.412 342.544 128.309 332.995 126.065 323.503C125.948 323.009 125.811 322.522 125.653 322.043C128.535 317.948 129.59 312.757 128.413 307.781ZM116.347 317.457L113.357 320.21L115.415 323.715C115.798 324.367 116.082 325.076 116.258 325.822C117.224 329.906 114.687 334.014 110.602 334.98C109.289 335.291 107.916 335.247 106.632 334.853L103.22 333.807L101.1 336.677C100.017 338.143 98.5076 339.14 96.7343 339.559C92.6496 340.525 88.541 337.988 87.5753 333.904C87.0759 331.789 87.5084 329.554 88.7619 327.771L90.5725 325.197L89.0542 322.441C88.7191 321.832 88.4684 321.184 88.3101 320.514C87.3444 316.43 89.8816 312.322 93.9662 311.356C95.3295 311.033 96.7481 311.091 98.0694 311.522L102.394 312.934L104.239 308.774C105.214 306.574 107.113 304.997 109.448 304.445C113.532 303.479 117.641 306.016 118.607 310.1C119.238 312.772 118.372 315.591 116.347 317.457Z" fill="#F8F8F8"/>
<path d="M335.766 297.073C333.522 287.58 323.973 281.684 314.48 283.929C310.418 284.889 306.924 287.184 304.475 290.419C302.649 290.274 300.802 290.413 298.998 290.839C289.505 293.084 283.609 302.633 285.853 312.125C285.992 312.711 286.16 313.289 286.358 313.858C284.646 317.466 284.189 321.578 285.12 325.515C287.365 335.008 296.913 340.904 306.406 338.659C309.374 337.957 312.098 336.499 314.318 334.454C316.301 334.666 318.317 334.543 320.272 334.08C329.765 331.836 335.662 322.287 333.417 312.795C333.301 312.302 333.163 311.814 333.006 311.336C335.889 307.241 336.943 302.049 335.766 297.073ZM323.699 306.75L320.709 309.504L322.767 313.008C323.15 313.66 323.433 314.368 323.609 315.114C324.575 319.198 322.038 323.307 317.953 324.272C316.64 324.583 315.268 324.539 313.983 324.145L310.571 323.099L308.452 325.969C307.368 327.435 305.859 328.432 304.086 328.851C300.001 329.817 295.892 327.28 294.927 323.196C294.427 321.082 294.859 318.847 296.112 317.064L297.923 314.491L296.405 311.734C296.069 311.125 295.819 310.476 295.661 309.806C294.695 305.722 297.232 301.613 301.317 300.647C302.68 300.325 304.099 300.382 305.418 300.814L309.745 302.227L311.589 298.066C312.565 295.866 314.464 294.288 316.798 293.736C320.883 292.77 324.991 295.308 325.957 299.392C326.59 302.065 325.724 304.884 323.699 306.75Z" fill="#F8F8F8"/>
<path d="M273.553 267.062C270.125 263.92 265.802 262.172 261.279 262.019C260.271 260.173 258.961 258.497 257.393 257.061C253.608 253.592 248.699 251.805 243.57 252.029C238.44 252.253 233.706 254.461 230.238 258.245C224.711 264.277 223.721 273.161 227.41 280.195C223.556 287.734 225.074 297.214 231.527 303.127C235.311 306.596 240.22 308.383 245.35 308.159C246.585 308.105 247.797 307.937 248.975 307.658C252.685 306.78 256.049 304.816 258.682 301.942C259.123 301.46 259.539 300.958 259.927 300.437C265.476 300.617 270.914 298.389 274.738 294.216L274.738 294.216C281.898 286.403 281.367 274.222 273.553 267.062ZM269.701 280.832C269.808 283.271 268.958 285.606 267.308 287.407L267.308 287.407C265.079 289.839 261.694 290.881 258.474 290.128L254.518 289.204L252.775 292.874C252.385 293.696 251.872 294.456 251.252 295.134C249.602 296.934 247.351 297.985 244.911 298.09C242.471 298.196 240.137 297.347 238.336 295.697C234.819 292.474 234.383 287.026 237.343 283.292L239.855 280.122L237.303 276.984C234.471 273.5 234.628 268.371 237.668 265.054C238.921 263.688 240.52 262.754 242.285 262.336C242.845 262.204 243.422 262.123 244.009 262.098C246.449 261.992 248.783 262.841 250.584 264.491C251.824 265.628 252.725 267.076 253.188 268.68L254.451 273.052L258.928 272.24C261.772 271.725 264.621 272.546 266.745 274.491C268.544 276.141 269.595 278.393 269.701 280.832Z" fill="#F8F8F8"/>
<path d="M302.298 383.278C301.675 380.644 300.447 378.186 298.743 376.113C299.348 373.492 299.341 370.772 298.707 368.089C296.737 359.759 289.144 354.2 280.899 354.48C281.306 352.157 281.251 349.744 280.692 347.38C278.447 337.886 268.897 331.99 259.405 334.234C256.817 334.846 254.431 336.023 252.396 337.66C247.303 334.667 241.207 333.704 235.326 335.095C233.816 335.452 232.359 335.953 230.969 336.593C229.324 335.582 227.531 334.85 225.661 334.423C228.257 330.161 229.138 324.98 227.96 319.998C225.521 309.683 215.145 303.275 204.83 305.715C200.309 306.783 196.434 309.377 193.763 313.034C191.672 312.832 189.549 312.974 187.481 313.463C183.806 314.332 180.546 316.221 178.016 318.873C170.382 314.456 160.421 315.762 154.222 322.526C148.922 328.312 147.796 336.724 150.969 343.612C143.974 346.7 139.688 354.049 140.536 361.726C138.286 361.615 135.814 361.857 133.208 362.714C129.229 364.02 125.955 366.228 123.676 369.093C121.831 368.941 119.963 369.079 118.138 369.511C108.645 371.755 102.749 381.305 104.993 390.798C105.132 391.384 105.299 391.96 105.496 392.526C103.784 396.133 103.327 400.247 104.258 404.186C104.93 407.028 106.257 409.574 108.063 411.674C98.3863 414.558 92.5062 424.562 94.8581 434.509C95.9638 439.185 98.7603 443.198 102.59 445.865C99.2057 452.866 98.6282 460.982 101.039 468.418L165.887 623.54L319.362 587.25L307.913 419.925L307.868 419.512C306.974 413.632 304.357 408.175 300.442 403.811C300.473 402.159 300.306 400.528 299.943 398.996C299.827 398.504 299.69 398.019 299.533 397.541C302.419 393.444 303.474 388.252 302.298 383.278ZM171.889 611.76L110.567 465.118C108.877 459.735 109.47 454.07 112.241 449.145C115.045 444.162 119.653 440.694 125.217 439.378L125.422 439.33C136.045 436.818 146.653 443.09 149.571 453.608L149.598 453.706L149.785 454.288C149.879 454.687 149.981 455.086 150.091 455.484L198.383 605.496L171.889 611.76ZM208.223 603.169L159.516 451.628C158.436 446.639 159.26 441.516 161.881 437.083C164.707 432.304 169.239 428.969 174.641 427.692C185.497 425.125 196.417 431.869 198.984 442.724L235.403 596.742L208.223 603.169ZM245.211 594.423L208.793 440.405C206.226 429.549 212.97 418.629 223.826 416.062C229.228 414.785 234.774 415.737 239.44 418.744C243.77 421.534 246.802 425.745 248.07 430.689L272.391 587.997L245.211 594.423ZM297.875 420.828L308.724 579.405L282.231 585.669L258.258 430.117L258.223 429.915C258.143 429.509 258.055 429.105 257.96 428.705L257.883 428.205L257.848 428.005C255.746 417.294 262.422 406.935 273.045 404.423L273.249 404.374C278.813 403.059 284.487 404.095 289.225 407.295C293.909 410.459 296.975 415.258 297.875 420.828ZM290.226 392.952L287.615 395.359C282.282 393.56 276.49 393.254 270.93 394.568L270.725 394.617C260.43 397.051 252.61 404.405 249.224 413.639C247.9 412.404 246.455 411.277 244.898 410.274C237.907 405.768 229.599 404.341 221.505 406.255C211.249 408.68 203.444 416.081 200.041 425.297C192.87 418.582 182.577 415.46 172.321 417.885C164.227 419.799 157.439 424.796 153.206 431.955C152.263 433.55 151.475 435.204 150.845 436.901C143.681 430.162 133.396 427.089 123.101 429.524L122.896 429.572C117.383 430.876 112.38 433.706 108.433 437.649C106.565 436.38 105.2 434.446 104.666 432.188C103.507 427.284 106.555 422.351 111.463 421.191C113.099 420.804 114.803 420.872 116.39 421.389L120.71 422.797L122.555 418.645C122.961 417.73 123.518 416.886 124.21 416.134L131.241 408.488L120.883 407.699C117.572 407.446 114.832 405.102 114.067 401.865C113.567 399.749 113.998 397.513 115.252 395.731L117.065 393.155L115.541 390.396C115.21 389.797 114.962 389.151 114.802 388.478C113.836 384.393 116.374 380.283 120.459 379.318C121.825 378.995 123.242 379.051 124.559 379.482L128.886 380.897L130.731 376.734C131.846 374.22 134.403 372.929 136.352 372.289C140.616 370.894 144.402 372.72 146.663 373.815C147.363 374.153 147.967 374.446 148.599 374.65L152.958 376.055L154.755 371.89L156.41 368.163L153.37 365.737C152.028 364.666 151.11 363.216 150.714 361.545C149.755 357.487 152.252 353.405 156.29 352.405L159.09 351.909L160.183 349.481C160.5 348.779 160.886 348.137 161.33 347.576L163.84 344.407L161.29 341.27C158.457 337.783 158.613 332.653 161.653 329.335C165.058 325.617 170.853 325.367 174.565 328.77C174.785 328.972 175.013 329.209 175.243 329.475L180.327 335.353L183.619 328.312C184.814 325.755 187.067 323.918 189.8 323.271C191.436 322.884 193.141 322.953 194.727 323.47L199.046 324.877L200.892 320.727C202.068 318.083 204.348 316.186 207.148 315.524C212.054 314.364 216.991 317.412 218.151 322.319C218.91 325.528 217.87 328.911 215.439 331.148L212.457 333.891L214.497 337.393C214.946 338.164 215.28 338.986 215.493 339.84C215.516 339.973 215.542 340.106 215.575 340.243L216.59 344.536L220.979 344.097C223.203 343.875 225.408 344.648 227.027 346.219L229.965 349.068L233.355 346.778C234.655 345.901 236.099 345.27 237.645 344.904C241.905 343.897 246.364 345.074 249.575 348.053L253.875 352.043L257.171 347.19C258.251 345.599 259.869 344.482 261.724 344.043C265.809 343.077 269.918 345.615 270.884 349.7C271.516 352.37 270.648 355.19 268.621 357.059L265.616 359.829L267.706 363.342C267.907 363.678 268.089 364.072 268.249 364.514L270.816 371.596L276.382 366.521C277.322 365.664 278.483 365.054 279.739 364.757C283.825 363.791 287.933 366.325 288.898 370.407C289.294 372.083 289.122 373.792 288.402 375.351L286.742 378.945L289.839 381.406C291.177 382.47 292.093 383.917 292.489 385.593C293.121 388.264 292.253 391.083 290.226 392.952Z" fill="#F8F8F8"/>
<path d="M202.171 359.849C200.718 360.193 199.349 360.743 198.092 361.481C193.804 358.594 188.464 357.567 183.28 358.793C174.524 360.863 168.645 368.778 168.797 377.429C159.224 380.184 153.386 390.037 155.702 399.835L165.51 397.515C164.402 392.829 167.314 388.114 172.001 387.005C172.771 386.823 173.584 386.75 174.418 386.789L181.932 387.137L179.396 380.056C179.271 379.709 179.178 379.4 179.109 379.111C178.001 374.424 180.913 369.709 185.6 368.601C188.77 367.851 192.071 368.921 194.213 371.393L198.146 375.932L201.933 371.27C202.395 370.701 203.215 369.959 204.491 369.657C207.015 369.06 209.553 370.629 210.15 373.152L219.958 370.833C218.082 362.901 210.103 357.974 202.171 359.849Z" fill="#F8F8F8"/>
<path d="M239.116 370.1C234.319 371.234 230.281 374.367 227.919 378.559C226.029 378.359 224.109 378.481 222.217 378.929C213.023 381.103 207.313 390.351 209.486 399.545L219.294 397.225C218.399 393.44 220.751 389.632 224.537 388.736C226.021 388.385 227.554 388.526 228.969 389.145L234.631 391.619L235.916 385.575C236.509 382.785 238.675 380.56 241.435 379.908C245.401 378.97 249.391 381.434 250.329 385.399L260.136 383.08C257.919 373.706 248.491 367.883 239.116 370.1Z" fill="#F8F8F8"/>
<path d="M129.524 458.186L120.226 462.075L135.526 498.659L144.824 494.771L129.524 458.186Z" fill="#F8F8F8"/>
<path d="M167.158 548.182L157.86 552.07L167.406 574.9L176.704 571.013L167.158 548.182Z" fill="#F8F8F8"/>
<path d="M246.141 549.925L248.138 562.888L258.099 561.353L256.102 548.39L246.141 549.925Z" fill="#F8F8F8"/>
<path d="M234.229 472.656L240.082 510.629L250.043 509.094L244.19 471.121L234.229 472.656Z" fill="#F8F8F8"/>
<path d="M228.462 435.256L231.866 457.344L241.827 455.808L238.423 433.721L228.462 435.256Z" fill="#F8F8F8"/>
</g>
</g>
<defs>
<clipPath id="clip0">
<rect width="340.383" height="340.383" fill="white" transform="translate(305.713 128.561) rotate(-8.95005)"/>
</clipPath>
<clipPath id="clip1">
<rect width="344.011" height="344.011" fill="white" transform="translate(0 309.267) rotate(-13.3036)"/>
</clipPath>
</defs>
</svg>
