<svg width="227" height="227" viewBox="0 0 227 227" fill="none" xmlns="http://www.w3.org/2000/svg">
<path d="M227 113.5C227 50.8154 176.185 0 113.5 0C50.8154 0 0 50.8154 0 113.5C0 176.185 50.8154 227 113.5 227H227V208.083H176.161C207.894 187.075 226.986 151.56 227 113.5ZM169.095 190.021C156.418 199.23 138.67 196.422 129.461 183.74C120.252 171.063 123.06 153.319 135.737 144.106C148.419 134.897 166.163 137.705 175.372 150.387C184.585 163.064 181.773 180.807 169.095 190.021ZM167.701 66.0559C182.604 61.2113 198.611 69.3673 203.456 84.2706C208.296 99.1786 200.14 115.186 185.236 120.026C170.333 124.87 154.326 116.714 149.481 101.811C144.641 86.9077 152.797 70.8959 167.701 66.0559ZM113.5 18.9167C129.17 18.9167 141.875 31.6217 141.875 47.2917C141.875 62.9616 129.17 75.6667 113.5 75.6667C97.83 75.6667 85.125 62.9616 85.125 47.2917C85.125 31.6217 97.83 18.9167 113.5 18.9167ZM23.5442 84.2706C28.3889 69.3673 44.396 61.2113 59.2993 66.0513C74.2027 70.8959 82.3586 86.9031 77.5186 101.806C72.674 116.71 56.6669 124.866 41.7635 120.026C26.8602 115.186 18.7042 99.1786 23.5442 84.2706ZM97.5391 183.74C88.3301 196.422 70.5819 199.23 57.9046 190.021C45.2273 180.807 42.4147 163.064 51.6283 150.387C60.8372 137.709 78.5854 134.897 91.2628 144.11C103.94 153.319 106.748 171.063 97.5391 183.74ZM104.042 113.5C104.042 108.277 108.277 104.042 113.5 104.042C118.723 104.042 122.958 108.277 122.958 113.5C122.958 118.723 118.723 122.958 113.5 122.958C108.277 122.958 104.042 118.723 104.042 113.5Z" fill="white"/>
</svg>
