<svg width="618" height="577" viewBox="0 0 618 577" fill="none" xmlns="http://www.w3.org/2000/svg">
<path d="M253.697 220.403C253.696 220.401 253.696 220.398 253.695 220.396L197.13 33.4571C196.591 31.682 194.718 30.6765 192.941 31.2094L147.808 44.8655C147.189 45.0706 146.646 45.4553 146.246 45.9701L146.014 38.744C145.955 36.8853 144.4 35.4266 142.541 35.4862L48.3023 38.5064C46.4437 38.566 44.985 40.1213 45.0445 41.98L51.3007 237.188C51.3603 239.047 52.9155 240.506 54.7742 240.446L149.013 237.426C150.872 237.366 152.33 235.811 152.271 233.953L146.438 51.9643L202.125 236.004C202.567 237.462 203.933 238.442 205.456 238.393C205.747 238.382 206.035 238.334 206.314 238.251L251.437 224.595C253.219 224.062 254.231 222.185 253.697 220.403ZM98.3121 232.313L57.9242 233.607L51.8837 45.1299L92.2717 43.8355L98.3121 232.313ZM145.431 230.803L105.043 232.097L99.003 43.6198L139.391 42.3254L145.431 230.803ZM207.596 230.832L152.983 50.3362L191.659 38.6288L246.272 219.124L207.596 230.832Z" fill="white"/>
<path d="M82.6062 57.6218L62.4122 58.269C60.5535 58.3285 59.0948 59.8838 59.1544 61.7425C59.214 63.6012 60.7692 65.0598 62.6279 65.0003L82.8219 64.3531C84.6806 64.2935 86.1393 62.7382 86.0797 60.8796C86.0201 59.0209 84.4649 57.5622 82.6062 57.6218Z" fill="white"/>
<path d="M83.0376 71.0844L62.8437 71.7316C60.985 71.7912 59.5263 73.3465 59.5859 75.2052C59.6454 77.0638 61.2007 78.5225 63.0594 78.463L83.2534 77.8158C85.1121 77.7562 86.5707 76.2009 86.5112 74.3422C86.4516 72.4836 84.8963 71.0249 83.0376 71.0844Z" fill="white"/>
<path d="M129.725 56.1117L109.531 56.7588C107.673 56.8184 106.214 58.3737 106.274 60.2324C106.333 62.0911 107.889 63.5497 109.747 63.4902L129.941 62.843C131.8 62.7834 133.259 61.2281 133.199 59.3695C133.139 57.5108 131.584 56.0521 129.725 56.1117Z" fill="white"/>
<path d="M130.157 69.5743L109.963 70.2215C108.104 70.2811 106.646 71.8364 106.705 73.695C106.765 75.5537 108.32 77.0124 110.179 76.9528L130.373 76.3057C132.231 76.2461 133.69 74.6908 133.63 72.8321C133.571 70.9734 132.016 69.5148 130.157 69.5743Z" fill="white"/>
<path d="M190.187 56.7602C189.696 54.9663 187.843 53.9101 186.05 54.4009C185.991 54.4171 185.934 54.4345 185.876 54.4536L166.523 60.3028C164.74 60.8324 163.724 62.707 164.254 64.4896C164.783 66.2721 166.658 67.2881 168.441 66.7584C168.451 66.7556 168.461 66.7523 168.471 66.7495L187.828 60.8969C189.622 60.406 190.677 58.5541 190.187 56.7602Z" fill="white"/>
<path d="M194.002 69.5901C193.463 67.8099 191.583 66.8039 189.803 67.3427L189.79 67.3431L170.453 73.1951C168.671 73.7247 167.655 75.5993 168.184 77.3819C168.714 79.1645 170.589 80.1804 172.371 79.6507C172.381 79.6479 172.391 79.6446 172.402 79.6418L191.755 73.7893C193.535 73.2504 194.541 71.3702 194.002 69.5901Z" fill="white"/>
<path d="M231.031 192.057C230.488 190.292 228.624 189.293 226.853 189.819L207.5 195.671C205.72 196.209 204.713 198.089 205.251 199.869C205.692 201.329 207.06 202.31 208.584 202.26L208.597 202.26C208.891 202.25 209.183 202.202 209.465 202.118L228.802 196.266C230.579 195.719 231.577 193.835 231.031 192.057Z" fill="white"/>
<path d="M234.961 204.95C234.418 203.184 232.555 202.185 230.784 202.711L211.427 208.564C209.647 209.102 208.64 210.981 209.178 212.761C209.62 214.221 210.987 215.202 212.511 215.153C212.806 215.144 213.098 215.095 213.379 215.007L232.732 209.158C234.51 208.612 235.508 206.727 234.961 204.95Z" fill="white"/>
<path d="M134.256 197.47L114.062 198.117C112.203 198.176 110.744 199.732 110.804 201.59C110.864 203.449 112.419 204.908 114.277 204.848L134.471 204.201C136.33 204.141 137.789 202.586 137.729 200.727C137.67 198.869 136.114 197.41 134.256 197.47Z" fill="white"/>
<path d="M134.687 210.932L114.493 211.579C112.635 211.639 111.176 213.194 111.235 215.053C111.295 216.912 112.85 218.37 114.709 218.311L134.903 217.663C136.762 217.604 138.22 216.049 138.161 214.19C138.101 212.331 136.546 210.873 134.687 210.932Z" fill="white"/>
<path d="M87.1365 198.98L66.9425 199.627C65.0838 199.686 63.6251 201.242 63.6847 203.1C63.7442 204.959 65.2995 206.418 67.1582 206.358L87.3522 205.711C89.2109 205.651 90.6696 204.096 90.61 202.237C90.5504 200.379 88.9952 198.92 87.1365 198.98Z" fill="white"/>
<path d="M87.568 212.442L67.374 213.089C65.5153 213.149 64.0566 214.704 64.1162 216.563C64.1757 218.422 65.731 219.88 67.5897 219.821L87.7837 219.174C89.6424 219.114 91.101 217.559 91.0415 215.7C90.9819 213.841 89.4266 212.383 87.568 212.442Z" fill="white"/>
<g clip-path="url(#clip0)">
<path d="M282.899 263.68C285.215 264.73 287.946 263.704 288.998 261.387C289.788 259.645 290.798 257.989 292 256.466C299.468 247.002 313.235 244.723 323.343 251.28C328.621 254.704 332.261 259.957 333.594 266.073C334.88 271.975 338.397 277.27 343.495 280.982C344.732 281.882 346.218 282.194 347.62 281.973C349.024 281.752 350.342 280.998 351.242 279.762L377.264 244.01C378.861 241.815 381.852 241.222 384.149 242.559C384.295 242.675 384.431 242.8 384.584 242.911L417.053 266.544C415.038 268.333 412.656 269.574 410.108 270.129C405.054 271.23 400.281 273.538 396.302 276.801C394.335 278.415 394.048 281.318 395.661 283.285C396.736 284.596 398.383 285.16 399.944 284.914C400.727 284.791 401.488 284.464 402.145 283.926C405.002 281.582 408.435 279.924 412.07 279.131C417.972 277.844 423.267 274.328 426.978 269.23C429.376 266.074 427.433 262.147 424.335 260.378L390.024 235.404C387.638 233.862 387.166 230.414 388.851 228.123L412.452 195.698C414.156 197.673 415.339 199.988 415.878 202.46C417.732 210.964 422.788 218.266 430.116 223.02C444.174 232.139 463.319 228.972 473.705 215.815C479.3 208.725 481.705 199.904 480.477 190.977C479.248 182.047 474.558 174.208 467.271 168.904C460.785 164.183 452.816 162.004 444.835 162.77C442.279 163.014 439.689 162.602 437.277 161.591L460.877 129.17C461.702 128.035 462.92 127.291 464.306 127.072C465.691 126.854 467.079 127.189 468.214 128.015L504.724 154.589C506.781 156.086 509.662 155.632 511.16 153.576L512.235 152.099C515.933 147.018 517.649 140.881 517.068 134.818C516.518 129.079 518.085 123.348 521.481 118.684C525.296 113.441 530.93 110.076 537.36 109.184C543.782 108.3 550.128 110.032 555.233 114.059C564.697 121.527 566.975 135.294 560.419 145.402C556.995 150.68 551.742 154.321 545.625 155.653C539.722 156.941 534.428 160.457 530.717 165.555L529.644 167.029C528.147 169.087 528.601 171.967 530.658 173.465L567.167 200.04C569.509 201.745 570.027 205.036 568.323 207.378L562.492 215.389C560.995 217.446 561.449 220.327 563.506 221.824C565.563 223.321 568.444 222.867 569.942 220.81L575.772 212.8C580.466 206.35 579.039 197.285 572.589 192.591L539.984 168.858C542.129 166.736 544.756 165.273 547.587 164.656C556.092 162.802 563.394 157.744 568.148 150.416C577.267 136.357 574.1 117.21 560.94 106.826C553.85 101.232 545.03 98.8278 536.104 100.056C527.169 101.285 519.334 105.974 514.031 113.261C509.31 119.748 507.131 127.716 507.897 135.698C508.177 138.625 507.594 141.6 506.239 144.296L473.636 120.565C467.186 115.871 458.121 117.298 453.427 123.748L427.265 159.69C426.431 160.837 426.092 162.24 426.313 163.64C426.533 165.04 427.287 166.272 428.435 167.108C433.516 170.806 439.652 172.522 445.714 171.941C451.454 171.391 457.185 172.958 461.849 176.354C467.092 180.169 470.465 185.808 471.349 192.233C472.233 198.655 470.501 205.003 466.473 210.107C459.004 219.57 445.238 221.847 435.13 215.291C429.853 211.867 426.212 206.614 424.88 200.497C423.593 194.595 420.077 189.301 414.979 185.591C412.612 183.869 409.287 184.392 407.562 186.759L381.401 222.701C379.169 225.768 378.336 229.424 378.755 232.923C375.286 233.595 372.052 235.514 369.814 238.588L346.181 271.057C344.392 269.043 343.151 266.66 342.596 264.112C340.742 255.607 335.684 248.305 328.356 243.551C314.298 234.433 295.152 237.599 284.767 250.759C283.104 252.866 281.704 255.161 280.606 257.582C279.556 259.898 280.582 262.629 282.899 263.68Z" fill="white"/>
<path d="M559.924 246.539C557.289 246.792 554.617 246.344 552.143 245.264L557.426 238.007C558.923 235.949 558.469 233.068 556.412 231.571C554.355 230.074 551.474 230.528 549.976 232.584L541.749 243.887C539.977 246.28 541.022 249.488 543.524 250.877C548.605 254.575 554.741 256.291 560.803 255.71C566.544 255.16 572.275 256.728 576.939 260.123C582.181 263.939 585.555 269.578 586.439 276.004C587.322 282.426 585.59 288.772 581.562 293.876C574.093 303.341 560.325 305.616 550.219 299.06C544.942 295.636 541.302 290.384 539.969 284.267C538.682 278.365 535.166 273.071 530.068 269.36C527.978 267.407 524.604 267.402 522.873 269.821L496.298 306.331C494.701 308.527 491.71 309.12 489.413 307.782C489.267 307.667 489.131 307.542 488.979 307.432L453.242 281.419C450.799 279.73 447.27 280.17 445.46 282.687C441.763 287.768 440.046 293.904 440.628 299.966C441.178 305.706 439.61 311.436 436.215 316.101C432.4 321.344 426.764 324.719 420.335 325.601C413.913 326.485 407.567 324.753 402.463 320.726C396.261 315.832 392.95 308.15 393.605 300.178C393.813 297.642 391.926 295.418 389.39 295.21C386.853 294.999 384.63 296.888 384.422 299.424C383.514 310.481 388.124 321.148 396.755 327.959C403.844 333.552 412.665 335.957 421.591 334.729C421.81 334.699 422.027 334.667 422.244 334.633C430.902 333.268 438.49 328.632 443.664 321.523C448.385 315.037 450.564 307.069 449.798 299.087C449.545 296.452 449.993 293.78 451.073 291.306L483.537 314.937C483.701 315.056 483.869 315.17 484.037 315.282C485.958 317.064 486.291 320.048 484.711 322.218L458.136 358.728C456.056 361.517 457.887 364.791 460.627 366.239C465.708 369.937 471.845 371.653 477.907 371.072C483.646 370.522 489.377 372.09 494.042 375.485C499.284 379.3 502.658 384.939 503.542 391.365C504.425 397.786 502.694 404.132 498.666 409.237C491.199 418.7 477.432 420.979 467.324 414.424C462.046 411 458.405 405.747 457.072 399.629C455.785 393.726 452.268 388.432 447.172 384.722C445.002 382.566 441.223 381.841 439.26 384.661L412.685 421.171C410.981 423.514 407.689 424.032 405.348 422.327L368.837 395.752C366.51 393.98 363.178 395.05 361.848 397.527C358.15 402.608 356.434 408.744 357.015 414.806C357.565 420.546 355.998 426.277 352.602 430.942C348.787 436.184 343.161 439.543 336.722 440.442C330.3 441.325 323.953 439.593 318.849 435.565C309.386 428.097 307.108 414.33 313.666 404.222C317.088 398.945 322.341 395.305 328.458 393.972C334.361 392.685 339.655 389.169 343.366 384.071C345.319 381.98 345.325 378.606 342.904 376.876L306.395 350.301C304.052 348.597 303.534 345.305 305.239 342.963L331.262 307.212C332.134 306.015 332.486 304.549 332.256 303.086C332.026 301.623 331.239 300.337 330.039 299.464C324.958 295.766 318.822 294.05 312.76 294.631C307.02 295.181 301.289 293.614 296.625 290.219C293.127 287.673 290.401 284.229 288.741 280.263C287.759 277.916 285.06 276.812 282.713 277.791C280.365 278.773 279.259 281.472 280.241 283.82C282.551 289.341 286.341 294.129 291.202 297.669C297.689 302.389 305.657 304.569 313.639 303.803C316.273 303.55 318.945 303.997 321.42 305.078L297.789 337.542C293.096 343.992 294.523 353.058 300.972 357.752L333.441 381.385C331.427 383.174 329.044 384.415 326.496 384.97C317.991 386.825 310.69 391.881 305.937 399.209C296.817 413.266 299.982 432.413 313.141 442.798C320.231 448.393 329.051 450.798 337.978 449.57C346.912 448.34 354.748 443.65 360.052 436.365C364.773 429.878 366.952 421.91 366.187 413.927C365.934 411.293 366.381 408.621 367.461 406.146L399.925 429.777C406.375 434.47 415.441 433.042 420.135 426.594L443.868 393.988C445.99 396.132 447.453 398.759 448.07 401.591C449.924 410.096 454.981 417.398 462.31 422.153C469.264 426.663 477.46 428.168 485.227 426.944C493.164 425.694 500.651 421.595 505.9 414.944C511.493 407.855 513.898 399.034 512.67 390.108C511.441 381.178 506.751 373.339 499.464 368.036C492.977 363.315 485.009 361.136 477.027 361.902C474.1 362.182 471.126 361.599 468.43 360.244L492.161 327.641C494.389 324.58 495.222 320.931 494.809 317.438C498.414 316.74 501.574 314.739 503.747 311.754L527.38 279.284C529.169 281.298 530.41 283.681 530.966 286.23C532.819 294.734 537.876 302.035 545.204 306.789C559.261 315.909 578.408 312.744 588.793 299.584C594.388 292.495 596.793 283.674 595.565 274.748C594.336 265.817 589.646 257.978 582.36 252.675C575.875 247.953 567.907 245.774 559.924 246.539Z" fill="white"/>
</g>
<g clip-path="url(#clip1)">
<path d="M66.922 384.526C65.1274 376.936 57.4925 372.222 49.9035 374.016C46.5738 374.804 43.722 376.712 41.7572 379.402C40.2181 379.253 38.6555 379.357 37.1326 379.717C29.543 381.512 24.8286 389.146 26.6232 396.736C28.0085 402.595 33.0066 406.871 38.814 407.535C41.8095 412.999 48.2079 415.995 54.4752 414.513C62.0647 412.719 66.7792 405.084 64.9846 397.495C64.8737 397.026 64.7398 396.565 64.5832 396.113C66.9871 392.811 67.8802 388.578 66.922 384.526ZM57.708 392.734L55.5085 394.76L57.0222 397.339C57.3609 397.916 57.6122 398.542 57.7677 399.2C58.6213 402.81 56.3786 406.441 52.7693 407.295C49.3534 408.102 45.8563 406.114 44.8082 402.769L43.9176 399.929L40.9517 400.183C37.6602 400.466 34.6034 398.25 33.8415 395.028C32.988 391.418 35.2307 387.787 38.8399 386.934C40.0448 386.649 41.2986 386.7 42.4664 387.081L45.6494 388.121L47.0072 385.06C47.8699 383.115 49.5476 381.721 51.6109 381.233C55.2206 380.379 58.8517 382.622 59.7051 386.231C60.2632 388.593 59.4983 391.085 57.708 392.734Z" fill="white"/>
<path d="M94.4986 329.256C92.8468 322.27 85.82 317.931 78.8343 319.583C75.8443 320.29 73.2734 321.979 71.4711 324.359C70.1275 324.252 68.7687 324.355 67.4416 324.668C60.4559 326.32 56.1166 333.347 57.7683 340.332C57.8703 340.763 57.9942 341.189 58.1399 341.607C56.8796 344.262 56.5436 347.289 57.2287 350.186C58.8805 357.172 65.9073 361.511 72.893 359.859C75.0775 359.342 77.0816 358.269 78.7154 356.764C80.175 356.921 81.6579 356.83 83.0971 356.489C90.0827 354.837 94.4221 347.81 92.7704 340.825C92.6845 340.462 92.5835 340.104 92.4676 339.751C94.5886 336.738 95.3645 332.917 94.4986 329.256ZM85.6189 336.376L83.4189 338.402L84.9332 340.981C85.2153 341.461 85.424 341.983 85.5538 342.532C86.2644 345.537 84.3973 348.561 81.3914 349.271C80.4252 349.5 79.4151 349.467 78.4697 349.178L75.9591 348.408L74.3993 350.52C73.6022 351.599 72.4913 352.333 71.1863 352.641C68.1804 353.352 65.1569 351.485 64.4463 348.479C64.0788 346.923 64.397 345.278 65.3195 343.966L66.6519 342.072L65.5346 340.044C65.2879 339.596 65.1035 339.119 64.987 338.626C64.2763 335.621 66.1434 332.597 69.1493 331.886C70.1526 331.649 71.1965 331.691 72.1688 332.009L75.3516 333.047L76.7089 329.986C77.4266 328.368 78.8242 327.207 80.5419 326.8C83.5478 326.09 86.5714 327.957 87.282 330.962C87.747 332.929 87.1096 335.003 85.6189 336.376Z" fill="white"/>
<path d="M247.089 321.376C245.437 314.39 238.41 310.051 231.425 311.703C228.435 312.41 225.864 314.098 224.061 316.479C222.718 316.372 221.358 316.475 220.031 316.788C213.046 318.44 208.706 325.467 210.358 332.452C210.46 332.883 210.584 333.309 210.73 333.728C209.47 336.383 209.133 339.409 209.818 342.306C211.47 349.292 218.497 353.631 225.483 351.979C227.667 351.462 229.671 350.389 231.305 348.884C232.765 349.04 234.248 348.949 235.687 348.609C242.673 346.957 247.012 339.93 245.36 332.945C245.274 332.582 245.173 332.224 245.058 331.872C247.179 328.859 247.955 325.038 247.089 321.376ZM238.208 328.497L236.008 330.523L237.523 333.102C237.804 333.582 238.013 334.103 238.143 334.652C238.853 337.657 236.986 340.681 233.98 341.392C233.014 341.62 232.004 341.588 231.058 341.298L228.548 340.528L226.988 342.64C226.191 343.719 225.08 344.453 223.775 344.761C220.769 345.472 217.746 343.605 217.035 340.6C216.667 339.044 216.985 337.399 217.908 336.087L219.24 334.193L218.123 332.165C217.876 331.716 217.692 331.239 217.575 330.746C216.865 327.74 218.732 324.717 221.738 324.006C222.741 323.769 223.785 323.811 224.756 324.129L227.94 325.168L229.297 322.107C230.015 320.487 231.412 319.326 233.13 318.92C236.136 318.209 239.16 320.077 239.87 323.082C240.336 325.049 239.699 327.124 238.208 328.497Z" fill="white"/>
<path d="M201.306 299.29C198.784 296.978 195.603 295.693 192.274 295.579C191.532 294.221 190.568 292.988 189.414 291.931C186.629 289.378 183.017 288.063 179.242 288.228C175.467 288.393 171.983 290.018 169.431 292.803C165.364 297.241 164.635 303.779 167.35 308.955C164.514 314.503 165.631 321.48 170.379 325.831C173.165 328.383 176.777 329.699 180.552 329.534C181.461 329.494 182.353 329.37 183.219 329.165C185.95 328.519 188.425 327.074 190.363 324.959C190.688 324.604 190.994 324.235 191.279 323.851C195.363 323.984 199.365 322.344 202.179 319.273L202.178 319.273C207.447 313.524 207.057 304.56 201.306 299.29ZM198.472 309.424C198.55 311.219 197.925 312.937 196.711 314.262L196.71 314.262C195.071 316.052 192.58 316.819 190.21 316.265L187.299 315.585L186.016 318.286C185.729 318.891 185.351 319.45 184.895 319.949C183.681 321.273 182.024 322.047 180.229 322.124C178.433 322.202 176.716 321.577 175.391 320.363C172.803 317.992 172.481 313.982 174.659 311.235L176.508 308.902L174.631 306.592C172.546 304.028 172.662 300.254 174.899 297.813C175.821 296.808 176.997 296.12 178.297 295.813C178.708 295.716 179.133 295.656 179.565 295.638C181.361 295.559 183.079 296.185 184.404 297.399C185.316 298.235 185.979 299.301 186.32 300.481L187.249 303.699L190.544 303.101C192.637 302.722 194.734 303.326 196.296 304.758C197.621 305.972 198.394 307.629 198.472 309.424Z" fill="white"/>
<path d="M222.46 384.814C222.001 382.875 221.097 381.067 219.844 379.541C220.289 377.612 220.284 375.61 219.817 373.636C218.367 367.506 212.78 363.415 206.713 363.621C207.012 361.912 206.971 360.136 206.56 358.396C204.908 351.41 197.88 347.071 190.895 348.723C188.99 349.173 187.234 350.039 185.737 351.244C181.989 349.041 177.503 348.333 173.175 349.356C172.064 349.619 170.992 349.987 169.969 350.458C168.759 349.714 167.439 349.176 166.063 348.861C167.973 345.725 168.622 341.913 167.755 338.246C165.96 330.656 158.324 325.94 150.733 327.735C147.406 328.522 144.555 330.43 142.589 333.121C141.05 332.972 139.488 333.077 137.966 333.437C135.262 334.076 132.863 335.467 131.001 337.418C125.383 334.168 118.053 335.129 113.492 340.107C109.591 344.364 108.762 350.555 111.097 355.623C105.95 357.896 102.796 363.304 103.42 368.953C101.764 368.872 99.9447 369.05 98.027 369.681C95.099 370.641 92.6899 372.266 91.0129 374.375C89.6552 374.263 88.2801 374.365 86.9376 374.682C79.9515 376.334 75.6122 383.362 77.2641 390.347C77.366 390.778 77.4891 391.202 77.6338 391.619C76.3741 394.274 76.0377 397.301 76.7231 400.2C77.2177 402.291 78.1941 404.164 79.5233 405.71C72.4021 407.833 68.0749 415.195 69.8057 422.514C70.6194 425.955 72.6773 428.909 75.4957 430.871C73.0051 436.023 72.5801 441.996 74.354 447.467L122.075 561.621L235.017 534.916L226.592 411.782L226.559 411.478C225.901 407.151 223.975 403.135 221.094 399.924C221.117 398.708 220.993 397.508 220.727 396.381C220.641 396.018 220.54 395.661 220.425 395.309C222.549 392.295 223.325 388.474 222.46 384.814ZM126.492 552.953L81.3659 445.039C80.1224 441.078 80.5583 436.909 82.5978 433.285C84.6608 429.618 88.0518 427.066 92.1466 426.097L92.2972 426.062C100.115 424.213 107.921 428.829 110.069 436.569L110.089 436.641L110.226 437.069C110.295 437.363 110.37 437.657 110.451 437.949L145.989 548.342L126.492 552.953ZM153.23 546.63L117.387 435.112C116.592 431.441 117.199 427.671 119.128 424.408C121.207 420.892 124.542 418.437 128.517 417.497C136.506 415.608 144.542 420.571 146.431 428.56L173.232 541.901L153.23 546.63ZM180.45 540.195L153.65 426.853C151.761 418.864 156.723 410.828 164.712 408.939C168.688 407.999 172.769 408.7 176.203 410.913C179.389 412.966 181.62 416.065 182.553 419.703L200.451 535.465L180.45 540.195ZM219.205 412.446L227.189 529.142L207.693 533.752L190.051 419.282L190.025 419.133C189.966 418.834 189.902 418.538 189.832 418.243L189.775 417.875L189.749 417.728C188.203 409.846 193.115 402.222 200.932 400.374L201.083 400.338C205.177 399.37 209.353 400.133 212.84 402.488C216.286 404.816 218.543 408.348 219.205 412.446ZM213.576 391.933L211.655 393.704C207.73 392.38 203.468 392.155 199.376 393.122L199.226 393.158C191.65 394.949 185.895 400.361 183.402 407.156C182.429 406.247 181.365 405.418 180.219 404.68C175.074 401.364 168.961 400.314 163.004 401.722C155.457 403.507 149.713 408.953 147.209 415.735C141.932 410.794 134.357 408.496 126.81 410.281C120.854 411.689 115.858 415.366 112.743 420.635C112.049 421.808 111.47 423.026 111.006 424.274C105.734 419.315 98.1654 417.054 90.5893 418.845L90.4387 418.881C86.382 419.84 82.7001 421.923 79.7957 424.825C78.4209 423.891 77.4164 422.468 77.0234 420.806C76.1702 417.198 78.4136 413.567 82.0248 412.713C83.2292 412.429 84.4833 412.479 85.6509 412.859L88.8299 413.895L90.188 410.84C90.4867 410.167 90.8966 409.545 91.4055 408.992L96.5794 403.366L88.9576 402.785C86.5206 402.599 84.5046 400.874 83.9414 398.492C83.5731 396.934 83.8909 395.289 84.8134 393.978L86.1474 392.082L85.0261 390.051C84.7826 389.61 84.5997 389.136 84.4825 388.64C83.7717 385.634 85.6392 382.61 88.6451 381.899C89.6503 381.661 90.6935 381.703 91.6622 382.02L94.8465 383.061L96.2043 379.998C97.0248 378.148 98.9068 377.198 100.341 376.727C103.478 375.7 106.265 377.044 107.929 377.85C108.444 378.099 108.889 378.314 109.353 378.464L112.561 379.498L113.883 376.433L115.101 373.69L112.865 371.905C111.877 371.117 111.201 370.05 110.91 368.82C110.204 365.834 112.042 362.83 115.013 362.094L117.074 361.729L117.878 359.943C118.111 359.426 118.395 358.954 118.722 358.54L120.569 356.209L118.693 353.9C116.608 351.334 116.722 347.559 118.959 345.117C121.465 342.381 125.73 342.197 128.462 344.701C128.624 344.85 128.791 345.025 128.96 345.22L132.702 349.545L135.124 344.364C136.004 342.483 137.662 341.13 139.673 340.655C140.877 340.37 142.131 340.421 143.299 340.801L146.477 341.836L147.835 338.782C148.701 336.837 150.379 335.441 152.439 334.954C156.05 334.1 159.682 336.343 160.536 339.954C161.095 342.316 160.33 344.805 158.541 346.451L156.346 348.47L157.847 351.047C158.178 351.614 158.424 352.219 158.58 352.848C158.597 352.945 158.617 353.044 158.64 353.144L159.387 356.303L162.618 355.98C164.254 355.817 165.876 356.386 167.068 357.542L169.23 359.638L171.725 357.953C172.681 357.308 173.744 356.844 174.882 356.574C178.017 355.833 181.298 356.699 183.661 358.891L186.826 361.828L189.251 358.257C190.046 357.086 191.236 356.264 192.602 355.941C195.608 355.23 198.632 357.098 199.342 360.104C199.807 362.069 199.169 364.144 197.677 365.519L195.466 367.558L197.004 370.142C197.151 370.39 197.285 370.68 197.403 371.005L199.292 376.217L203.388 372.482C204.08 371.851 204.934 371.403 205.859 371.184C208.865 370.473 211.888 372.338 212.598 375.342C212.89 376.575 212.764 377.833 212.234 378.98L211.012 381.625L213.292 383.436C214.276 384.219 214.95 385.284 215.242 386.517C215.706 388.482 215.068 390.557 213.576 391.933Z" fill="white"/>
<path d="M148.777 367.572C147.707 367.825 146.7 368.23 145.775 368.773C142.62 366.648 138.689 365.893 134.875 366.795C128.431 368.319 124.105 374.143 124.217 380.509C117.172 382.537 112.876 389.788 114.581 396.997L121.798 395.291C120.983 391.842 123.125 388.372 126.574 387.556C127.141 387.422 127.74 387.369 128.354 387.397L133.883 387.653L132.016 382.442C131.925 382.187 131.856 381.96 131.806 381.747C130.99 378.298 133.133 374.828 136.582 374.012C138.915 373.461 141.344 374.248 142.921 376.068L145.815 379.408L148.602 375.977C148.942 375.558 149.545 375.012 150.484 374.79C152.341 374.351 154.209 375.505 154.648 377.362L161.866 375.655C160.486 369.818 154.614 366.192 148.777 367.572Z" fill="white"/>
<path d="M175.965 375.116C172.434 375.951 169.462 378.256 167.725 381.341C166.333 381.194 164.921 381.284 163.529 381.613C156.763 383.213 152.56 390.018 154.16 396.784L161.378 395.077C160.719 392.291 162.449 389.489 165.235 388.83C166.328 388.572 167.456 388.676 168.497 389.131L172.664 390.951L173.61 386.504C174.046 384.451 175.64 382.814 177.671 382.333C180.59 381.643 183.526 383.456 184.216 386.375L191.433 384.668C189.802 377.77 182.863 373.485 175.965 375.116Z" fill="white"/>
<path d="M95.3158 439.938L88.4735 442.8L99.7333 469.722L106.576 466.861L95.3158 439.938Z" fill="white"/>
<path d="M123.011 506.166L116.168 509.027L123.193 525.828L130.036 522.967L123.011 506.166Z" fill="white"/>
<path d="M181.134 507.448L182.604 516.988L189.934 515.858L188.464 506.319L181.134 507.448Z" fill="white"/>
<path d="M172.368 450.586L176.675 478.531L184.005 477.401L179.699 449.457L172.368 450.586Z" fill="white"/>
<path d="M168.124 423.064L170.629 439.318L177.959 438.188L175.454 421.934L168.124 423.064Z" fill="white"/>
</g>
<defs>
<clipPath id="clip0">
<rect width="315" height="315" fill="white" transform="translate(257 144.006) rotate(-8.95005)"/>
</clipPath>
<clipPath id="clip1">
<rect width="253.156" height="253.156" fill="white" transform="translate(0 330.349) rotate(-13.3036)"/>
</clipPath>
</defs>
</svg>
