<svg width="142" height="85" viewBox="0 0 142 85" fill="none" xmlns="http://www.w3.org/2000/svg">
<rect x="73" y="3" width="69" height="77" fill="#FFB039"/>
<path d="M32.7975 9.728H70.0575V21.32H45.9535V33.556H65.9175V44.78H45.9535V59.408H70.0575V71H32.7975V9.728Z" fill="#FFB039"/>
<path d="M110.379 72.38C103.571 72.38 97.6827 71.184 92.7147 68.792C87.808 66.3387 84.036 62.8427 81.3987 58.304C78.7613 53.7653 77.4427 48.368 77.4427 42.112C77.4427 35.5493 78.8227 29.7533 81.5827 24.724C84.404 19.6947 88.3293 15.8 93.3587 13.04C98.4493 10.28 104.307 8.9 110.931 8.9C114.733 8.9 118.321 9.32933 121.695 10.188C125.129 11.0467 128.165 12.2733 130.803 13.868L127.583 24.908C125.191 23.436 122.523 22.3013 119.579 21.504C116.635 20.6453 113.752 20.216 110.931 20.216C106.883 20.216 103.295 21.1053 100.167 22.884C97.1 24.6013 94.708 27.0547 92.9907 30.244C91.3347 33.372 90.5067 37.0213 90.5067 41.192C90.5067 47.3253 92.3467 52.1707 96.0267 55.728C99.768 59.224 104.859 60.972 111.299 60.972C113.875 60.972 116.267 60.788 118.475 60.42V47.724H110.747V36.96H130.711V68.792C124.393 71.184 117.616 72.38 110.379 72.38Z" fill="white"/>
</svg>
