<svg width="236" height="141" viewBox="0 0 236 141" fill="none" xmlns="http://www.w3.org/2000/svg">
<rect x="104" y="15" width="108" height="122" fill="#FFB039"/>
<path d="M35.0763 21.108H100.686V41.52H58.2423V63.066H93.3963V82.83H58.2423V108.588H100.686V129H35.0763V21.108Z" fill="#FFB039"/>
<path d="M166.017 131.43C154.029 131.43 143.661 129.324 134.913 125.112C126.273 120.792 119.631 114.636 114.987 106.644C110.343 98.652 108.021 89.148 108.021 78.132C108.021 66.576 110.451 56.37 115.311 47.514C120.279 38.658 127.191 31.8 136.047 26.94C145.011 22.08 155.325 19.65 166.989 19.65C173.685 19.65 180.003 20.406 185.943 21.918C191.991 23.43 197.337 25.59 201.981 28.398L196.311 47.838C192.099 45.246 187.401 43.248 182.217 41.844C177.033 40.332 171.957 39.576 166.989 39.576C159.861 39.576 153.543 41.142 148.035 44.274C142.635 47.298 138.423 51.618 135.399 57.234C132.483 62.742 131.025 69.168 131.025 76.512C131.025 87.312 134.265 95.844 140.745 102.108C147.333 108.264 156.297 111.342 167.637 111.342C172.173 111.342 176.385 111.018 180.273 110.37V88.014H166.665V69.06H201.819V125.112C190.695 129.324 178.761 131.43 166.017 131.43Z" fill="#F4EEC7"/>
</svg>
