<svg width="114" height="76" viewBox="0 0 114 76" fill="none" xmlns="http://www.w3.org/2000/svg">
<rect x="50" y="8" width="59" height="68" fill="#FFB039"/>
<path d="M9.9075 11.728H47.1675V23.32H23.0635V35.556H43.0275V46.78H23.0635V61.408H47.1675V73H9.9075V11.728Z" fill="#FFB039"/>
<path d="M84.2687 74.38C77.4607 74.38 71.5727 73.184 66.6047 70.792C61.698 68.3387 57.926 64.8427 55.2887 60.304C52.6513 55.7653 51.3327 50.368 51.3327 44.112C51.3327 37.5493 52.7127 31.7533 55.4727 26.724C58.294 21.6947 62.2193 17.8 67.2487 15.04C72.3393 12.28 78.1967 10.9 84.8207 10.9C88.6233 10.9 92.2113 11.3293 95.5847 12.188C99.0193 13.0467 102.055 14.2733 104.693 15.868L101.473 26.908C99.0807 25.436 96.4127 24.3013 93.4687 23.504C90.5247 22.6453 87.642 22.216 84.8207 22.216C80.7727 22.216 77.1847 23.1053 74.0567 24.884C70.99 26.6013 68.598 29.0547 66.8807 32.244C65.2247 35.372 64.3967 39.0213 64.3967 43.192C64.3967 49.3253 66.2367 54.1707 69.9167 57.728C73.658 61.224 78.7487 62.972 85.1887 62.972C87.7647 62.972 90.1567 62.788 92.3647 62.42V49.724H84.6367V38.96H104.601V70.792C98.2833 73.184 91.506 74.38 84.2687 74.38Z" fill="#F4EEC7"/>
</svg>
